<svg version="1.1" id="Layer_1" xmlns="http://www.w3.org/2000/svg" xmlns:xlink="http://www.w3.org/1999/xlink" x="0px" y="0px"
	 width="100%" viewBox="0 0 555 450" enable-background="new 0 0 555 450" xml:space="preserve">
<path fill="#010101" opacity="1.000000" stroke="none" 
	d="
M556.000000,241.000000 
	C556.000000,310.971283 556.000000,380.942566 556.000000,450.956909 
	C371.104614,450.956909 186.209244,450.956909 1.000000,450.956909 
	C1.000000,448.943817 1.000000,446.880157 1.000000,444.816528 
	C1.000000,298.210022 0.993836,151.603531 1.102308,4.997105 
	C1.103236,3.743176 -0.956740,0.686083 3.877066,1.178635 
	C5.308590,3.091231 5.418904,5.205560 6.510167,6.479800 
	C8.766947,9.114983 11.545918,11.302959 14.335503,13.851486 
	C14.814828,14.312286 15.068773,14.596462 15.342478,15.211603 
	C19.553120,19.380878 23.743999,23.219189 28.029205,27.289398 
	C28.407835,27.685633 28.692144,27.849966 29.037729,28.331850 
	C30.069393,29.427551 31.039780,30.205700 32.158386,31.283070 
	C35.220646,34.378742 38.134682,37.175194 41.046135,40.442104 
	C41.144321,53.983120 41.245090,67.053680 41.297188,80.582611 
	C41.283951,91.654335 41.319397,102.267670 41.217003,113.333786 
	C41.170288,117.565262 41.261417,121.343971 41.301533,125.580826 
	C41.284485,132.987305 41.318455,139.935623 41.215424,147.336578 
	C41.166710,151.566986 41.255005,155.344772 41.293232,159.563232 
	C41.283867,162.961975 41.324570,165.920013 41.227974,169.315536 
	C41.180500,171.877792 41.270317,174.002548 41.310905,176.584595 
	C41.287071,182.657440 41.312458,188.272980 41.205669,194.252350 
	C41.161705,195.116745 41.249924,195.617310 41.292801,196.576965 
	C41.289005,215.649185 41.330547,234.262344 41.233627,253.246613 
	C41.751488,255.374222 42.407822,257.130707 43.247726,259.166565 
	C48.609867,264.629517 53.777817,269.823730 58.968868,274.994720 
	C79.025269,294.973724 99.089043,314.945251 119.184418,335.220703 
	C119.834099,335.975616 120.449432,336.429413 121.223602,337.152222 
	C122.309402,338.252075 123.236374,339.082977 124.215744,340.230164 
	C125.610588,341.250519 126.953026,341.954590 128.295456,342.658691 
	C128.279892,342.093872 128.264343,341.529083 128.327438,340.547943 
	C128.403946,336.103333 128.401794,332.075073 128.572678,327.659668 
	C128.627045,326.170471 128.508362,325.068359 128.457214,323.530640 
	C128.478836,320.747986 128.432968,318.400940 128.534424,315.773407 
	C128.587524,315.303894 128.493286,315.114868 128.470139,314.467590 
	C128.538742,308.344360 128.538147,302.679352 128.533447,297.014374 
	C128.498367,254.696213 128.462509,212.378067 128.568222,169.775299 
	C128.611923,169.302719 128.514297,169.114716 128.480423,168.467438 
	C128.487762,161.018921 128.431351,154.029633 128.555771,146.641281 
	C128.761765,144.315582 128.667435,142.373291 128.916367,140.476013 
	C128.964188,140.111557 130.360306,139.923981 131.350540,139.842255 
	C132.025955,140.364761 132.485245,140.699814 133.002075,141.342804 
	C133.674362,142.149048 134.289124,142.647354 135.074692,143.371826 
	C135.825134,144.068817 136.404755,144.539688 137.054321,145.307953 
	C137.744156,146.075897 138.364059,146.546463 138.991974,147.008514 
	C139.000000,147.000000 138.982758,147.015823 139.002762,147.351089 
	C140.243134,148.882751 141.463486,150.079163 142.757538,151.229034 
	C142.831223,151.182526 142.723221,151.319305 142.785248,151.620682 
	C143.602692,152.544968 144.358124,153.167877 145.249084,154.065079 
	C146.008331,154.857346 146.632050,155.375336 147.254913,156.145432 
	C147.540726,156.519348 147.827362,156.641159 148.108292,156.826202 
	C148.102570,156.889465 148.229584,156.891602 148.223480,157.150620 
	C148.511810,157.528412 148.806213,157.647186 149.270126,158.057007 
	C151.705444,160.524231 153.971268,162.700424 156.270264,165.188141 
	C157.233459,166.276093 158.163483,167.052536 159.233185,168.054047 
	C159.653275,168.489197 159.933701,168.699295 160.220551,169.163605 
	C160.517960,169.530899 160.808945,169.644012 161.248489,170.023621 
	C161.991043,170.827835 162.585037,171.365555 163.207901,172.234924 
	C165.199677,174.299088 167.162567,176.031601 169.250717,178.005997 
	C169.662231,178.465805 169.948486,178.683716 170.225128,179.160706 
	C170.508942,179.547943 170.802353,179.676086 171.092712,179.857208 
	C171.089645,179.910202 171.195633,179.904114 171.202850,180.164566 
	C171.507431,180.547684 171.804825,180.670349 172.101257,180.842957 
	C172.100327,180.892914 172.199417,180.880234 172.259857,181.201843 
	C173.914429,182.952469 175.508575,184.381485 177.240356,186.040497 
	C177.662384,186.481995 177.946808,186.693497 178.227615,187.159729 
	C178.512634,187.541214 178.801239,187.667953 179.234222,188.100311 
	C181.978607,190.905579 184.578629,193.405197 187.241516,196.210648 
	C188.241257,197.274643 189.178131,198.032806 190.240555,199.084503 
	C191.317810,200.220154 192.269501,201.062271 193.218384,202.162262 
	C193.509216,202.538712 193.802841,202.657303 194.277283,203.059967 
	C196.032715,204.869415 197.607361,206.394760 199.200790,208.173492 
	C199.511383,208.539871 199.803192,208.652847 200.260773,209.048615 
	C201.712646,210.507980 202.998749,211.684570 204.300781,213.177277 
	C205.210159,213.997910 206.103592,214.502411 207.185028,215.276550 
	C209.229782,214.321198 211.086533,213.096222 213.204834,211.853363 
	C213.594269,211.536392 213.722137,211.237305 214.142883,210.773804 
	C216.941132,208.038712 219.446503,205.468033 222.210999,202.866028 
	C222.611450,202.538300 222.752777,202.241928 222.931854,201.958221 
	C222.969620,201.970886 222.944077,201.895447 223.203491,201.866745 
	C223.604980,201.542343 223.747055,201.246628 224.186646,200.803238 
	C226.308792,198.740356 228.133423,196.825165 230.230438,194.901672 
	C230.644836,194.584702 230.786865,194.276047 231.158508,193.849457 
	C231.574432,193.448441 231.760727,193.165375 232.203247,192.852005 
	C232.589600,192.527084 232.719757,192.232468 233.116852,191.802826 
	C233.909073,191.082993 234.434326,190.498169 235.229431,189.894012 
	C235.634537,189.566177 235.769806,189.257675 235.943756,188.960480 
	C235.982468,188.971802 235.943680,188.901108 236.198502,188.861816 
	C236.591705,188.529282 236.730087,188.236053 237.140060,187.818863 
	C237.926285,187.097977 238.440918,186.501068 239.224457,185.892212 
	C239.638901,185.576080 239.784470,185.271881 240.193924,184.831207 
	C240.950500,184.080811 241.443161,183.466904 242.195343,182.838562 
	C242.590240,182.529190 242.725616,182.234253 243.139191,181.820679 
	C243.924469,181.089432 244.431549,180.476837 245.191071,179.833008 
	C245.574600,179.511642 245.705704,179.221512 246.107162,178.802582 
	C246.902069,178.080307 247.426636,177.486847 248.217377,176.877533 
	C248.629593,176.560272 248.775635,176.258850 248.955505,175.973877 
	C248.989334,175.990326 248.956329,175.922699 249.221191,175.893341 
	C249.621445,175.560440 249.756851,175.256882 250.178879,174.792999 
	C251.958740,173.048645 253.451981,171.464615 255.200256,169.850067 
	C255.595108,169.528183 255.734909,169.236816 256.178802,168.799683 
	C260.973267,164.069687 265.463654,159.485474 270.212891,154.871155 
	C270.627472,154.548615 270.783234,154.256165 270.964813,153.983246 
	C270.990631,154.002777 270.965820,153.943008 271.238983,153.924362 
	C271.656372,153.595367 271.800629,153.285034 272.237183,152.811935 
	C276.673065,148.408676 280.816589,144.168167 285.439545,139.864990 
	C286.470490,141.121048 287.480713,142.433426 287.499023,143.759506 
	C287.615875,152.227707 287.503784,160.698898 287.488129,169.169128 
	C287.473480,177.079727 287.484985,184.990356 287.484985,192.900970 
	C287.937042,193.105774 288.389130,193.310577 288.841187,193.515381 
	C289.945984,192.374847 291.050781,191.234329 292.408386,189.957672 
	C292.756653,189.655624 292.852112,189.489731 293.096832,189.393311 
	C293.246063,189.462784 293.479187,189.230164 293.479187,189.230164 
	C293.479187,189.230164 293.344452,188.929611 293.621460,188.738892 
	C294.979858,187.440414 296.061279,186.332672 297.448425,185.165207 
	C298.230713,184.461411 298.707214,183.817337 299.091675,183.090363 
	C298.999573,183.007477 299.177032,183.181107 299.466370,183.114807 
	C300.381226,182.325165 301.006714,181.601807 301.900177,180.664047 
	C308.087280,174.500153 314.006378,168.550659 320.122253,162.592987 
	C320.592438,162.443008 320.698029,162.221283 320.886871,161.729477 
	C321.397888,161.211105 321.657837,160.882874 322.110291,160.548355 
	C322.575684,160.386169 322.649963,160.163910 322.812775,159.708862 
	C324.059906,158.682205 325.019958,157.821991 326.237396,156.911407 
	C326.638977,156.562790 326.783142,156.264542 327.198669,155.851578 
	C327.974152,155.146545 328.478271,154.556229 329.252136,153.936066 
	C329.669800,153.598572 329.817749,153.290909 330.261871,152.828217 
	C333.697266,149.434723 336.836487,146.196259 340.293335,142.895050 
	C341.405914,141.887131 342.200867,140.941956 343.263702,139.878815 
	C344.009827,139.152878 344.488007,138.544876 345.291870,137.908966 
	C346.071869,137.249496 346.526184,136.617935 346.990234,135.993500 
	C347.000000,136.000610 346.987000,135.980942 347.297913,135.947083 
	C348.070038,135.290268 348.531219,134.667313 349.270569,133.905884 
	C350.364258,132.843277 351.179779,131.919174 352.331818,130.945129 
	C355.477722,127.957275 358.287109,125.019348 361.051331,122.042816 
	C361.006165,122.004219 361.080811,122.096603 361.400208,122.043961 
	C362.494873,121.005966 363.270172,120.020615 364.023132,119.017502 
	C364.000793,118.999748 364.034637,119.045479 364.347229,119.009491 
	C365.140137,118.335052 365.620422,117.696594 366.394958,116.905357 
	C374.092194,109.429596 381.495178,102.106606 389.195435,94.759369 
	C390.114746,93.977348 390.736786,93.219589 391.385681,92.434372 
	C391.412567,92.406921 391.458862,92.345581 391.784058,92.209122 
	C392.746063,91.005264 393.382812,89.937866 394.437988,88.169174 
	C388.078400,88.169174 382.864166,88.169174 377.675140,88.169174 
	C377.675140,76.780632 377.765869,65.879074 377.642517,54.979942 
	C377.563416,47.990997 377.168701,41.005627 376.906677,33.639557 
	C376.903381,32.502125 376.908875,31.743790 377.208893,30.798386 
	C377.305298,27.080816 377.107147,23.550316 376.899994,19.551458 
	C376.763885,14.094412 376.636810,9.105722 376.630402,3.682621 
	C376.834045,2.498807 376.917023,1.749404 377.000000,1.000001 
	C436.602722,1.000000 496.205444,1.000000 556.000000,1.000000 
	C556.000000,76.687996 556.000000,152.376144 555.618591,228.799225 
	C554.916626,228.623306 554.348511,227.722321 554.311768,226.800201 
	C553.477600,205.830765 548.408752,186.011749 538.814087,167.291229 
	C530.018372,150.129608 518.186401,135.288132 503.647064,122.893890 
	C484.807678,106.834023 462.930969,96.645020 438.503510,91.794807 
	C431.532837,90.410751 426.670074,91.389503 421.441437,96.660400 
	C394.902588,123.413696 367.931213,149.737930 341.112915,176.214050 
	C326.013550,191.120758 310.864349,205.977814 295.887177,221.006317 
	C294.041870,222.857910 292.004547,225.605194 291.948395,227.982162 
	C291.461670,248.571167 291.306549,269.170227 291.262482,289.766724 
	C291.234375,302.905945 291.627991,316.045471 291.712463,329.185669 
	C291.810486,344.429901 291.884155,359.676086 291.725555,374.918884 
	C291.685760,378.746552 293.073517,379.725067 296.691956,379.717560 
	C316.456238,379.676575 336.221954,380.017792 355.985291,379.901611 
	C374.813293,379.790955 393.638031,379.106079 412.465973,379.003906 
	C425.822113,378.931427 438.827087,376.832367 451.564941,373.107544 
	C482.948730,363.930267 508.730438,346.484344 527.842163,319.829132 
	C544.008850,297.281250 553.166443,272.118286 554.320312,244.214417 
	C554.365540,243.121674 555.417236,242.070541 556.000000,241.000000 
M193.603302,347.501465 
	C193.652649,380.795837 192.730072,414.105804 194.284027,448.294495 
	C218.430832,424.735901 241.646774,402.102264 264.806915,379.411713 
	C265.530121,378.703156 265.977753,377.424683 266.042145,376.380371 
	C266.399170,370.588165 266.790558,364.787048 266.816071,358.987396 
	C266.910492,337.503326 266.868622,316.018707 266.868927,294.534271 
	C266.868958,293.206818 266.765167,291.879547 266.755035,290.551849 
	C266.699615,283.274017 266.643341,275.996155 266.616760,268.718170 
	C266.594360,262.591583 266.612152,256.464844 266.612152,249.147064 
	C264.660217,250.667160 263.977295,251.101501 263.410339,251.654709 
	C247.679382,267.004791 231.982956,282.390350 216.226196,297.713867 
	C211.003128,302.793335 205.353912,307.464203 200.430634,312.810944 
	C197.567169,315.920746 194.311630,319.804321 193.783188,323.686859 
	C192.765961,331.160400 193.560349,338.880493 193.603302,347.501465 
z"/>
<path fill="#E2E0E3" opacity="1.000000" stroke="none" 
	d="
M556.000000,240.539368 
	C555.417236,242.070541 554.365540,243.121674 554.320312,244.214417 
	C553.166443,272.118286 544.008850,297.281250 527.842163,319.829132 
	C508.730438,346.484344 482.948730,363.930267 451.564941,373.107544 
	C438.827087,376.832367 425.822113,378.931427 412.465973,379.003906 
	C393.638031,379.106079 374.813293,379.790955 355.985291,379.901611 
	C336.221954,380.017792 316.456238,379.676575 296.691956,379.717560 
	C293.073517,379.725067 291.685760,378.746552 291.725555,374.918884 
	C291.884155,359.676086 291.810486,344.429901 291.712463,329.185669 
	C291.627991,316.045471 291.234375,302.905945 291.262482,289.766724 
	C291.306549,269.170227 291.461670,248.571167 291.948395,227.982162 
	C292.004547,225.605194 294.041870,222.857910 295.887177,221.006317 
	C310.864349,205.977814 326.013550,191.120758 341.112915,176.214050 
	C367.931213,149.737930 394.902588,123.413696 421.441437,96.660400 
	C426.670074,91.389503 431.532837,90.410751 438.503510,91.794807 
	C462.930969,96.645020 484.807678,106.834023 503.647064,122.893890 
	C518.186401,135.288132 530.018372,150.129608 538.814087,167.291229 
	C548.408752,186.011749 553.477600,205.830765 554.311768,226.800201 
	C554.348511,227.722321 554.916626,228.623306 555.618591,229.267059 
	C556.000000,232.692902 556.000000,236.385818 556.000000,240.539368 
M390.512695,180.876678 
	C387.069031,180.876678 383.625336,180.876678 379.867523,180.876678 
	C379.867523,182.829834 379.868256,184.292313 379.867432,185.754791 
	C379.858154,202.023453 379.938080,218.292786 379.814117,234.560562 
	C379.690063,250.844528 379.426086,267.128296 379.073212,283.408905 
	C378.997253,286.913269 379.802460,288.475647 383.761261,288.351074 
	C393.407135,288.047455 403.076233,288.457794 412.720398,288.127167 
	C426.813049,287.644104 438.468658,281.383423 447.922760,271.322601 
	C458.929535,259.609467 463.041504,245.395538 462.152161,229.376923 
	C460.943909,207.615463 443.045502,186.155121 421.582977,182.697083 
	C411.717346,181.107544 401.544434,181.425079 390.512695,180.876678 
z"/>
<path fill="#010101" opacity="1.000000" stroke="none" 
	d="
M123.000000,1.000000 
	C179.020889,1.000000 235.041794,1.000000 291.961243,1.239420 
	C292.583679,2.050284 292.307556,2.621728 291.734741,3.248235 
	C290.955383,3.862812 290.472778,4.422326 289.668823,5.059600 
	C288.254395,6.430286 287.161346,7.723214 285.833923,9.121253 
	C285.411530,9.508004 285.223511,9.789643 284.744293,10.147278 
	C283.991852,10.830602 283.530640,11.437931 283.037109,12.025376 
	C283.004761,12.005491 283.044861,12.069973 282.745056,12.109850 
	C282.001617,12.785331 281.557983,13.420933 280.880768,14.158791 
	C280.441010,14.526377 280.234833,14.791708 279.704712,15.071800 
	C278.920563,15.724427 278.460297,16.362293 277.748352,17.181271 
	C276.680237,18.278347 275.863800,19.194315 274.751740,20.156475 
	C274.021912,20.826426 273.587708,21.450180 272.879303,22.201149 
	C272.096313,22.942417 271.587555,23.556469 270.776398,24.213772 
	C270.038483,24.864708 269.602966,25.472393 268.877930,26.209431 
	C267.748779,27.275042 266.909119,28.211304 265.770935,29.184853 
	C265.024780,29.835894 264.577148,30.449648 263.859558,31.191677 
	C263.079742,31.921804 262.569916,32.523655 261.764648,33.170933 
	C261.021454,33.827999 260.573669,34.439640 259.856567,35.184746 
	C259.082306,35.930412 258.577332,36.542610 257.746399,37.193573 
	C256.327057,38.510986 255.233673,39.789631 253.898331,41.176781 
	C253.460892,41.572861 253.265396,41.860439 252.773895,42.191101 
	C252.022018,42.836178 251.566147,43.438175 250.826782,44.217480 
	C248.385513,46.645908 246.227737,48.897022 243.757431,51.203640 
	C242.678055,52.195972 241.911209,53.132805 240.870026,54.195194 
	C240.087845,54.931484 239.579987,55.542221 238.772217,56.208260 
	C238.032928,56.867290 237.593536,57.471024 236.873123,58.187744 
	C236.086197,58.920044 235.580292,59.539356 234.754364,60.192627 
	C233.658630,61.168697 232.882965,62.110802 231.845032,63.192192 
	C231.076736,63.933216 230.570679,64.534966 229.731491,65.159973 
	C227.941269,66.795212 226.484192,68.407181 225.014404,70.008659 
	C225.001678,69.998169 225.017319,70.025856 224.688354,70.024139 
	C223.617096,71.036484 222.874786,72.050545 221.894867,73.182205 
	C221.464432,73.589912 221.271606,73.880013 220.766510,74.217796 
	C219.700836,75.207329 218.947433,76.149178 217.943375,77.198547 
	C217.490707,77.600853 217.288681,77.895660 216.775635,78.242912 
	C215.698578,79.223717 214.932526,80.152084 213.883911,81.192635 
	C213.090073,81.917061 212.578827,82.529297 211.754623,83.200027 
	C210.656891,84.190598 209.872116,85.122673 209.052338,86.032066 
	C209.017349,86.009384 209.051559,86.085457 208.722595,86.089684 
	C207.548691,85.890770 206.703735,85.687630 205.686401,85.192963 
	C205.165070,84.621124 204.816086,84.340805 204.490845,83.880814 
	C204.408707,83.429688 204.213028,83.323212 203.718338,83.112244 
	C202.824142,82.248230 202.139160,81.653687 201.455414,80.883759 
	C201.338623,80.454384 201.143646,80.360924 200.793976,80.142929 
	C200.437149,79.589005 200.158051,79.320137 199.876663,78.783905 
	C199.574707,78.362579 199.275040,78.208618 198.878632,77.815323 
	C198.498047,77.394653 198.214218,77.213333 197.891479,76.773712 
	C197.556122,76.372360 197.259644,76.229309 196.818481,75.781296 
	C194.093643,72.994598 191.513489,70.512878 188.884583,67.778427 
	C188.543472,67.383041 188.251129,67.240387 187.813385,66.809677 
	C186.418381,65.359993 185.168747,64.198372 183.888336,62.775089 
	C183.557892,62.374962 183.258224,62.236492 182.853973,61.863903 
	C182.478394,61.429588 182.207413,61.229397 181.905716,60.757816 
	C181.560150,60.380116 181.245300,60.273804 180.906021,60.108307 
	C180.881577,60.049118 180.766113,60.104546 180.698364,59.922905 
	C180.448593,59.522633 180.216553,59.431770 179.708588,59.195442 
	C176.293350,55.627613 173.103989,52.333019 169.880341,48.779541 
	C169.550903,48.371666 169.255798,48.222679 168.977921,48.042198 
	C168.995163,48.010708 168.929184,48.039051 168.902954,47.775497 
	C168.581924,47.346710 168.287140,47.181477 167.883270,46.722866 
	C166.816818,45.634075 165.859436,44.838669 164.873230,43.785366 
	C164.552979,43.374107 164.261520,43.220741 163.857910,42.790108 
	C163.134644,42.021912 162.523529,41.530994 161.851135,40.796799 
	C161.497406,40.454731 161.204941,40.355934 160.787369,40.016132 
	C160.394226,39.535976 160.126190,39.296829 159.865753,38.791496 
	C159.580292,38.354309 159.287216,38.183311 158.913681,37.770267 
	C158.551834,37.353981 158.270432,37.179745 157.930267,36.748173 
	C157.570602,36.346684 157.269699,36.202530 156.983017,36.030235 
	C156.997223,36.002094 156.942245,36.032974 156.902664,35.772373 
	C156.564026,35.367840 156.264969,35.223911 155.825836,34.800270 
	C154.771210,33.689175 153.856674,32.857788 152.900085,31.767010 
	C152.559906,31.361036 152.261765,31.214457 151.979477,31.037045 
	C151.995316,31.006212 151.933426,31.037455 151.898514,30.775848 
	C151.566742,30.358942 151.269882,30.203644 150.987213,30.025274 
	C151.001404,30.002203 150.953247,30.026920 150.919327,29.763493 
	C150.588760,29.336208 150.292114,29.172350 149.997742,29.004169 
	C150.000000,28.999847 149.991531,29.003906 149.954956,28.734646 
	C149.610489,28.314060 149.302628,28.162735 148.842896,27.713943 
	C145.434998,24.290440 142.178955,21.164404 138.887115,17.730068 
	C138.227493,16.958908 137.603653,16.496050 136.990845,16.016926 
	C137.001846,16.000658 136.967270,16.018761 136.931366,15.754398 
	C136.596802,15.327227 136.298172,15.164417 135.855118,14.700031 
	C131.753128,10.633789 127.795563,6.869125 123.534851,2.864226 
	C123.154472,2.082661 123.077232,1.541331 123.000000,1.000000 
z"/>
<path fill="#B9B4B4" opacity="1.000000" stroke="none" 
	d="
M122.531342,1.000000 
	C123.077232,1.541331 123.154472,2.082661 123.157372,3.000380 
	C121.093513,3.484620 119.104141,3.683735 117.114464,3.686756 
	C82.321152,3.739577 47.527794,3.764464 12.734472,3.814165 
	C11.016534,3.816619 9.298840,3.989907 7.385224,4.094332 
	C9.863386,7.624809 11.986754,10.649836 14.110123,13.674862 
	C11.545918,11.302959 8.766947,9.114983 6.510167,6.479800 
	C5.418904,5.205560 5.308590,3.091231 4.377066,1.178635 
	C43.354229,1.000000 82.708458,1.000000 122.531342,1.000000 
z"/>
<path fill="#C7C3C4" opacity="1.000000" stroke="none" 
	d="
M292.031433,3.193170 
	C292.307556,2.621728 292.583679,2.050284 292.429871,1.239420 
	C320.020905,1.000000 348.041779,1.000000 376.531372,1.000001 
	C376.917023,1.749404 376.834045,2.498807 376.194153,3.639925 
	C349.549500,3.966075 323.461700,3.912787 297.374146,3.807936 
	C295.592438,3.800776 293.812286,3.407091 292.031433,3.193170 
z"/>
<path fill="#FCFDFC" opacity="1.000000" stroke="none" 
	d="
M291.734741,3.248232 
	C293.812286,3.407091 295.592438,3.800776 297.374146,3.807936 
	C323.461700,3.912787 349.549500,3.966075 376.073486,4.074337 
	C376.636810,9.105722 376.763885,14.094412 376.639374,19.855143 
	C376.563293,24.079941 376.738800,27.532698 376.914337,30.985455 
	C376.908875,31.743790 376.903381,32.502125 376.642700,33.956234 
	C376.267731,50.364609 376.092834,66.077057 376.049225,81.789871 
	C376.023621,91.014915 374.797516,89.790291 384.155518,90.165352 
	C386.615143,90.263916 389.025757,91.585587 391.458862,92.345581 
	C391.458862,92.345581 391.412567,92.406921 391.053009,92.337273 
	C390.095001,93.106293 389.496582,93.944954 388.898163,94.783615 
	C381.495178,102.106606 374.092194,109.429596 366.064636,116.917236 
	C364.971619,117.736420 364.503113,118.390945 364.034607,119.045471 
	C364.034637,119.045479 364.000793,118.999748 363.679993,119.015839 
	C362.599701,120.053482 361.840240,121.075035 361.080811,122.096603 
	C361.080811,122.096603 361.006165,122.004219 360.704590,122.045609 
	C357.600433,125.056366 354.797882,128.025726 351.995300,130.995087 
	C351.179779,131.919174 350.364258,132.843277 348.952759,133.896820 
	C347.900177,134.677811 347.443604,135.329376 346.987000,135.980957 
	C346.987000,135.980942 347.000000,136.000610 346.671753,136.005737 
	C345.884430,136.652863 345.425323,137.294876 344.966217,137.936890 
	C344.488007,138.544876 344.009827,139.152878 342.929626,139.898163 
	C341.543671,141.009567 340.759674,141.983688 339.975708,142.957794 
	C336.836487,146.196259 333.697266,149.434723 330.002563,152.874176 
	C329.292206,153.372116 329.137329,153.669022 328.982422,153.965912 
	C328.478271,154.556229 327.974152,155.146545 326.936462,155.893295 
	C326.261963,156.353745 326.120972,156.657761 325.979980,156.961777 
	C325.019958,157.821991 324.059906,158.682205 322.609436,159.694214 
	C321.826935,160.018387 321.759857,160.254608 321.917786,160.554626 
	C321.657837,160.882874 321.397888,161.211105 320.677185,161.715424 
	C319.906433,162.040802 319.809448,162.277359 319.925476,162.601166 
	C314.006378,168.550659 308.087280,174.500153 301.566895,180.642273 
	C300.369415,181.616974 299.773224,182.399033 299.177032,183.181107 
	C299.177032,183.181107 298.999573,183.007477 298.753540,183.101379 
	C298.052521,183.871826 297.597595,184.548370 297.142670,185.224930 
	C296.061279,186.332672 294.979858,187.440414 293.488159,188.705078 
	C292.860474,188.967194 292.817047,189.121140 292.947601,189.323822 
	C292.852112,189.489731 292.756653,189.655624 292.040741,189.932648 
	C287.787506,191.201965 289.024323,188.289658 289.017883,186.908615 
	C288.947479,171.762772 288.997131,156.616394 288.988495,141.470169 
	C288.987518,139.779510 288.828400,138.088943 288.742615,136.398331 
	C288.309875,136.298004 287.877106,136.197678 287.444336,136.097351 
	C286.616272,137.374115 285.788208,138.650879 284.960144,139.927658 
	C280.816589,144.168167 276.673065,148.408676 271.981598,152.857910 
	C271.277740,153.358765 271.121765,153.650894 270.965820,153.943008 
	C270.965820,153.943008 270.990631,154.002777 270.705872,154.013123 
	C270.265411,154.316055 270.109741,154.608658 269.954071,154.901260 
	C265.463654,159.485474 260.973267,164.069687 255.926331,168.833771 
	C255.228256,169.302612 255.086731,169.591599 254.945221,169.880585 
	C253.451981,171.464615 251.958740,173.048645 249.927185,174.840057 
	C249.244705,175.339203 249.100525,175.630951 248.956329,175.922699 
	C248.956329,175.922699 248.989334,175.990326 248.702225,176.011658 
	C248.260483,176.319794 248.105835,176.606598 247.951202,176.893387 
	C247.426636,177.486847 246.902069,178.080307 245.854492,178.831512 
	C245.200531,179.280930 245.069580,179.572586 244.938629,179.864258 
	C244.431549,180.476837 243.924469,181.089432 242.888519,181.848434 
	C242.218384,182.280884 242.077103,182.566940 241.935822,182.852997 
	C241.443161,183.466904 240.950500,184.080811 239.940903,184.871521 
	C239.267853,185.333618 239.111710,185.618881 238.955566,185.904144 
	C238.440918,186.501068 237.926285,187.097977 236.884705,187.855774 
	C236.219727,188.311478 236.081711,188.606293 235.943680,188.901108 
	C235.943680,188.901108 235.982468,188.971802 235.692886,189.009048 
	C235.255402,189.335312 235.107483,189.624329 234.959579,189.913345 
	C234.434326,190.498169 233.909073,191.082993 232.867477,191.840820 
	C232.216431,192.303314 232.081726,192.592819 231.947021,192.882309 
	C231.760727,193.165375 231.574432,193.448441 230.905670,193.891724 
	C230.268158,194.337967 230.113113,194.623978 229.958069,194.909988 
	C228.133423,196.825165 226.308792,198.740356 223.934143,200.841980 
	C223.237427,201.317413 223.090759,201.606430 222.944092,201.895447 
	C222.944077,201.895447 222.969620,201.970886 222.678299,201.998154 
	C222.241943,202.316071 222.096909,202.606720 221.951874,202.897369 
	C219.446503,205.468033 216.941132,208.038712 213.896423,210.813004 
	C213.033585,211.211670 212.895645,211.496536 212.943268,211.871231 
	C211.086533,213.096222 209.229782,214.321198 207.171021,214.949585 
	C206.074280,213.855713 205.179565,213.358444 204.284851,212.861160 
	C202.998749,211.684570 201.712646,210.507980 200.245331,208.796112 
	C199.770065,208.147247 199.476044,208.033676 199.182007,207.920105 
	C197.607361,206.394760 196.032715,204.869415 194.274536,202.805664 
	C193.801056,202.146301 193.511139,202.025360 193.221207,201.904404 
	C192.269501,201.062271 191.317810,200.220154 190.262848,198.745514 
	C189.165939,197.376938 188.172287,196.640869 187.178650,195.904816 
	C184.578629,193.405197 181.978607,190.905579 179.240784,187.843658 
	C178.812393,187.155914 178.521805,187.030441 178.231216,186.904984 
	C177.946808,186.693497 177.662384,186.481995 177.251938,185.694229 
	C175.483749,183.705383 173.841583,182.292801 172.199417,180.880234 
	C172.199417,180.880234 172.100327,180.892914 172.088196,180.586212 
	C171.782593,180.154388 171.489105,180.029251 171.195633,179.904114 
	C171.195633,179.904114 171.089645,179.910202 171.094421,179.600937 
	C170.811035,179.161652 170.522888,179.031631 170.234741,178.901627 
	C169.948486,178.683716 169.662231,178.465805 169.267670,177.657959 
	C167.165924,175.346451 165.172470,173.624863 163.179016,171.903290 
	C162.585037,171.365555 161.991043,170.827835 161.241852,169.771790 
	C160.795807,169.138779 160.504959,169.024094 160.214127,168.909409 
	C159.933701,168.699295 159.653275,168.489197 159.248184,167.714218 
	C158.161377,166.391769 157.199234,165.634201 156.237091,164.876617 
	C153.971268,162.700424 151.705444,160.524231 149.271606,157.801086 
	C148.812256,157.133286 148.520920,157.012436 148.229584,156.891602 
	C148.229584,156.891602 148.102570,156.889465 148.115540,156.570297 
	C147.837601,156.131851 147.546677,156.012589 147.255753,155.893311 
	C146.632050,155.375336 146.008331,154.857346 145.270599,153.718597 
	C144.345459,152.504990 143.534332,151.912155 142.723221,151.319305 
	C142.723221,151.319305 142.831223,151.182526 142.832169,150.886383 
	C141.549667,149.398758 140.266205,148.207291 138.982758,147.015823 
	C138.982758,147.015823 139.000000,147.000000 138.978973,146.688599 
	C138.300079,145.921646 137.642242,145.466095 136.984390,145.010544 
	C136.404755,144.539688 135.825134,144.068817 135.046829,143.046326 
	C134.213623,142.008072 133.579086,141.521469 132.944550,141.034866 
	C132.485245,140.699814 132.025955,140.364761 131.363678,139.497894 
	C130.617630,137.624252 130.074570,136.282410 129.531494,134.940567 
	C128.670258,135.527451 127.809029,136.114334 126.947792,136.701218 
	C127.423508,140.147598 127.899223,143.593979 128.374939,147.040359 
	C128.431351,154.029633 128.487762,161.018921 128.292267,168.552017 
	C128.169205,169.417191 128.298050,169.738556 128.426895,170.059906 
	C128.462509,212.378067 128.498367,254.696213 128.533447,297.014374 
	C128.538147,302.679352 128.538742,308.344360 128.280884,314.547516 
	C127.985306,315.218170 127.881081,315.387970 127.928543,315.475677 
	C128.043839,315.688721 128.229675,315.863617 128.387085,316.053894 
	C128.432968,318.400940 128.478836,320.747986 128.250000,323.768402 
	C128.116730,325.643433 128.258179,326.845123 128.399643,328.046783 
	C128.401794,332.075073 128.403946,336.103333 127.967590,340.596588 
	C126.407166,340.678986 125.285255,340.296417 124.163345,339.913818 
	C123.236374,339.082977 122.309402,338.252075 121.215736,336.839905 
	C120.416046,335.812286 119.783058,335.365936 119.150070,334.919586 
	C99.089043,314.945251 79.025269,294.973724 58.968868,274.994720 
	C53.777817,269.823730 48.609867,264.629517 43.254974,258.783325 
	C42.509800,256.372284 41.940948,254.623886 41.372093,252.875488 
	C41.330547,234.262344 41.289005,215.649185 41.539787,196.546509 
	C41.667355,195.334167 41.502602,194.611359 41.337845,193.888535 
	C41.312458,188.272980 41.287071,182.657440 41.624023,176.442871 
	C41.779335,173.521912 41.572300,171.199982 41.365269,168.878052 
	C41.324570,165.920013 41.283867,162.961975 41.623718,159.396240 
	C41.786987,154.820358 41.569706,150.852142 41.352425,146.883942 
	C41.318455,139.935623 41.284485,132.987305 41.631439,125.413605 
	C41.793186,120.819160 41.574013,116.850082 41.354843,112.881012 
	C41.319397,102.267670 41.283951,91.654335 41.630615,80.409256 
	C42.204689,79.324554 42.562130,78.872421 42.564449,78.418480 
	C42.625500,66.491379 42.684750,54.563869 42.609703,42.637280 
	C42.604095,41.745495 41.592602,40.860043 41.048717,39.971645 
	C38.134682,37.175194 35.220646,34.378742 32.139099,30.948553 
	C30.973209,29.547977 29.974831,28.781139 28.976452,28.014299 
	C28.692144,27.849966 28.407835,27.685633 28.025440,26.944363 
	C23.725807,22.538496 19.524261,18.709568 15.322718,14.880639 
	C15.068773,14.596462 14.814828,14.312286 14.335504,13.851486 
	C11.986754,10.649836 9.863386,7.624809 7.385224,4.094332 
	C9.298840,3.989907 11.016534,3.816619 12.734472,3.814165 
	C47.527794,3.764464 82.321152,3.739577 117.114464,3.686756 
	C119.104141,3.683735 121.093513,3.484620 123.460510,3.240614 
	C127.795563,6.869125 131.753128,10.633789 135.901917,14.958430 
	C136.384491,15.685190 136.675888,15.851974 136.967270,16.018759 
	C136.967270,16.018761 137.001846,16.000658 137.001617,16.336954 
	C137.641876,17.128288 138.282394,17.583328 138.922897,18.038368 
	C142.178955,21.164404 145.434998,24.290440 148.906189,27.964523 
	C149.411377,28.676350 149.701462,28.840128 149.991531,29.003906 
	C149.991531,29.003906 150.000000,28.999847 150.033020,29.267702 
	C150.361786,29.699345 150.657516,29.863131 150.953247,30.026918 
	C150.953247,30.026920 151.001404,30.002203 151.027161,30.284195 
	C151.346420,30.723276 151.639923,30.880365 151.933426,31.037455 
	C151.933426,31.037455 151.995316,31.006212 152.024750,31.293938 
	C152.350174,31.729912 152.646164,31.878159 152.942139,32.026405 
	C153.856674,32.857788 154.771210,33.689175 155.872864,35.054871 
	C156.354065,35.737110 156.648148,35.885040 156.942245,36.032974 
	C156.942245,36.032974 156.997223,36.002094 157.033905,36.291367 
	C157.376724,36.722263 157.682877,36.863884 157.989029,37.005508 
	C158.270432,37.179745 158.551834,37.353981 158.936203,38.025726 
	C159.312164,38.701385 159.585144,38.879536 159.858139,39.057686 
	C160.126190,39.296829 160.394226,39.535976 160.842712,40.255829 
	C161.256790,41.021805 161.553207,41.122982 161.912415,41.040070 
	C162.523529,41.530994 163.134644,42.021912 163.893280,43.044510 
	C164.327881,43.731876 164.614960,43.887569 164.902039,44.043259 
	C165.859436,44.838669 166.816818,45.634075 167.911270,46.986649 
	C168.341949,47.708893 168.635574,47.873974 168.929184,48.039051 
	C168.929184,48.039051 168.995163,48.010708 169.018250,48.296928 
	C169.332443,48.734909 169.623535,48.886669 169.914642,49.038429 
	C173.103989,52.333019 176.293350,55.627613 179.729919,59.414894 
	C179.977142,59.907581 180.330307,60.171768 180.330307,60.171768 
	C180.330307,60.171768 180.766113,60.104546 180.766113,60.104546 
	C180.766113,60.104546 180.881577,60.049118 180.981903,60.341255 
	C181.290146,60.931110 181.574890,61.063049 181.936447,61.029205 
	C182.207413,61.229397 182.478394,61.429588 182.899139,62.114845 
	C183.338989,62.745525 183.629044,62.891140 183.919113,63.036751 
	C185.168747,64.198372 186.418381,65.359993 187.859711,67.062958 
	C188.345367,67.746590 188.639359,67.888878 188.933334,68.031158 
	C191.513489,70.512878 194.093643,72.994598 196.861954,76.035728 
	C197.343521,76.740761 197.636948,76.886383 197.930374,77.032005 
	C198.214218,77.213333 198.498047,77.394653 198.912476,78.066864 
	C199.321701,78.722260 199.600327,78.886765 199.878952,79.051270 
	C200.158051,79.320137 200.437149,79.589005 200.761963,80.333351 
	C200.807693,80.808830 201.069290,81.093353 201.069290,81.093353 
	C201.069290,81.093353 201.454193,81.059143 201.454193,81.059143 
	C202.139160,81.653687 202.824142,82.248230 203.681122,83.299942 
	C203.853104,83.757111 204.084015,84.062889 204.084015,84.062889 
	C204.084015,84.062889 204.467102,84.060493 204.467102,84.060486 
	C204.816086,84.340805 205.165070,84.621124 205.690994,85.515511 
	C206.958450,88.228226 208.029404,88.916710 209.051559,86.085457 
	C209.051559,86.085457 209.017349,86.009384 209.384094,86.029091 
	C210.523071,85.079712 211.295319,84.110626 212.067566,83.141533 
	C212.578827,82.529297 213.090073,81.917061 214.208771,81.188568 
	C215.573044,80.111694 216.329865,79.151077 217.086670,78.190468 
	C217.288681,77.895660 217.490707,77.600853 218.270248,77.199120 
	C219.591431,76.118156 220.335098,75.144135 221.078766,74.170105 
	C221.271606,73.880013 221.464432,73.589912 222.228378,73.170059 
	C223.538773,72.035500 224.278046,71.030678 225.017319,70.025856 
	C225.017319,70.025856 225.001678,69.998169 225.357986,70.034821 
	C227.164398,68.426552 228.614502,66.781631 230.064606,65.136703 
	C230.570679,64.534966 231.076736,63.933216 232.191422,63.204834 
	C233.558167,62.105019 234.316284,61.131844 235.074402,60.158669 
	C235.580292,59.539356 236.086197,58.920044 237.184952,58.185596 
	C238.209259,57.431293 238.640686,56.792126 239.072128,56.152958 
	C239.579987,55.542221 240.087845,54.931484 241.198151,54.189289 
	C242.557037,53.087929 243.313492,52.118031 244.069946,51.148132 
	C246.227737,48.897022 248.385513,46.645908 251.139282,44.222782 
	C252.180161,43.416519 252.625015,42.782265 253.069885,42.148018 
	C253.265396,41.860439 253.460892,41.572861 254.230774,41.164635 
	C255.894241,39.747593 256.983307,38.451202 258.072388,37.154816 
	C258.577332,36.542610 259.082306,35.930412 260.170807,35.187294 
	C261.189606,34.412750 261.624878,33.769131 262.060120,33.125511 
	C262.569916,32.523655 263.079742,31.921804 264.171387,31.183592 
	C265.191956,30.414013 265.630737,29.780796 266.069489,29.147572 
	C266.909119,28.211304 267.748779,27.275042 269.189423,26.208195 
	C270.219879,25.441914 270.649323,24.806217 271.078796,24.170521 
	C271.587555,23.556469 272.096313,22.942417 273.194061,22.194204 
	C274.204498,21.410126 274.625946,20.760208 275.047394,20.110287 
	C275.863800,19.194315 276.680237,18.278347 278.068237,17.170612 
	C279.102753,16.338245 279.565704,15.697644 280.028656,15.057041 
	C280.234833,14.791708 280.441010,14.526377 281.198944,14.144632 
	C282.182068,13.375471 282.613464,12.722723 283.044861,12.069974 
	C283.044861,12.069973 283.004761,12.005491 283.356873,12.024698 
	C284.151123,11.386364 284.593323,10.728824 285.035492,10.071282 
	C285.223511,9.789643 285.411530,9.508004 286.171356,9.112606 
	C287.825500,7.659848 288.907837,6.320849 289.990173,4.981845 
	C290.472778,4.422326 290.955383,3.862812 291.734741,3.248232 
z"/>
<path fill="#E0DEE0" opacity="1.000000" stroke="none" 
	d="
M193.603363,346.999908 
	C193.560349,338.880493 192.765961,331.160400 193.783188,323.686859 
	C194.311630,319.804321 197.567169,315.920746 200.430634,312.810944 
	C205.353912,307.464203 211.003128,302.793335 216.226196,297.713867 
	C231.982956,282.390350 247.679382,267.004791 263.410339,251.654709 
	C263.977295,251.101501 264.660217,250.667160 266.612152,249.147064 
	C266.612152,256.464844 266.594360,262.591583 266.616760,268.718170 
	C266.643341,275.996155 266.699615,283.274017 266.755035,290.551849 
	C266.765167,291.879547 266.868958,293.206818 266.868927,294.534271 
	C266.868622,316.018707 266.910492,337.503326 266.816071,358.987396 
	C266.790558,364.787048 266.399170,370.588165 266.042145,376.380371 
	C265.977753,377.424683 265.530121,378.703156 264.806915,379.411713 
	C241.646774,402.102264 218.430832,424.735901 194.284027,448.294495 
	C192.730072,414.105804 193.652649,380.795837 193.603363,346.999908 
z"/>
<path fill="#C7C3C4" opacity="1.000000" stroke="none" 
	d="
M391.784058,92.209122 
	C389.025757,91.585587 386.615143,90.263916 384.155518,90.165352 
	C374.797516,89.790291 376.023621,91.014915 376.049225,81.789871 
	C376.092834,66.077057 376.267731,50.364609 376.651489,34.335335 
	C377.168701,41.005627 377.563416,47.990997 377.642517,54.979942 
	C377.765869,65.879074 377.675140,76.780632 377.675140,88.169174 
	C382.864166,88.169174 388.078400,88.169174 394.437988,88.169174 
	C393.382812,89.937866 392.746063,91.005264 391.784058,92.209122 
z"/>
<path fill="#C5BEBE" opacity="1.000000" stroke="none" 
	d="
M285.439545,139.864990 
	C285.788208,138.650879 286.616272,137.374115 287.444336,136.097351 
	C287.877106,136.197678 288.309875,136.298004 288.742615,136.398331 
	C288.828400,138.088943 288.987518,139.779510 288.988495,141.470169 
	C288.997131,156.616394 288.947479,171.762772 289.017883,186.908615 
	C289.024323,188.289658 287.787506,191.201965 291.787964,190.068787 
	C291.050781,191.234329 289.945984,192.374847 288.841187,193.515381 
	C288.389130,193.310577 287.937042,193.105774 287.484985,192.900970 
	C287.484985,184.990356 287.473480,177.079727 287.488129,169.169128 
	C287.503784,160.698898 287.615875,152.227707 287.499023,143.759506 
	C287.480713,142.433426 286.470490,141.121048 285.439545,139.864990 
z"/>
<path fill="#B9B4B4" opacity="1.000000" stroke="none" 
	d="
M41.046135,40.442104 
	C41.592602,40.860043 42.604095,41.745495 42.609703,42.637280 
	C42.684750,54.563869 42.625500,66.491379 42.564449,78.418480 
	C42.562130,78.872421 42.204689,79.324554 41.679295,79.950882 
	C41.245090,67.053680 41.144321,53.983120 41.046135,40.442104 
z"/>
<path fill="#B9B4B4" opacity="1.000000" stroke="none" 
	d="
M15.342478,15.211603 
	C19.524261,18.709568 23.725807,22.538496 27.931116,26.712463 
	C23.743999,23.219189 19.553120,19.380878 15.342478,15.211603 
z"/>
<path fill="#B9B4B4" opacity="1.000000" stroke="none" 
	d="
M128.555771,146.641281 
	C127.899223,143.593979 127.423508,140.147598 126.947792,136.701218 
	C127.809029,136.114334 128.670258,135.527451 129.531494,134.940567 
	C130.074570,136.282410 130.617630,137.624252 131.147568,139.310440 
	C130.360306,139.923981 128.964188,140.111557 128.916367,140.476013 
	C128.667435,142.373291 128.761765,144.315582 128.555771,146.641281 
z"/>
<path fill="#C5BEBE" opacity="1.000000" stroke="none" 
	d="
M352.331818,130.945145 
	C354.797882,128.025726 357.600433,125.056366 360.749756,122.084206 
	C358.287109,125.019348 355.477722,127.957275 352.331818,130.945145 
z"/>
<path fill="#B9B4B4" opacity="1.000000" stroke="none" 
	d="
M41.215424,147.336578 
	C41.569706,150.852142 41.786987,154.820358 41.673782,158.955551 
	C41.255005,155.344772 41.166710,151.566986 41.215424,147.336578 
z"/>
<path fill="#B9B4B4" opacity="1.000000" stroke="none" 
	d="
M41.216999,113.333786 
	C41.574013,116.850082 41.793186,120.819160 41.682453,124.955460 
	C41.261417,121.343971 41.170288,117.565262 41.216999,113.333786 
z"/>
<path fill="#C7C3C4" opacity="1.000000" stroke="none" 
	d="
M377.208893,30.798386 
	C376.738800,27.532698 376.563293,24.079941 376.648376,20.323500 
	C377.107147,23.550316 377.305298,27.080816 377.208893,30.798386 
z"/>
<path fill="#B9B4B4" opacity="1.000000" stroke="none" 
	d="
M163.207901,172.234924 
	C165.172470,173.624863 167.165924,175.346451 169.142410,177.416077 
	C167.162567,176.031601 165.199677,174.299088 163.207901,172.234924 
z"/>
<path fill="#B9B4B4" opacity="1.000000" stroke="none" 
	d="
M41.227974,169.315536 
	C41.572300,171.199982 41.779335,173.521912 41.673248,175.985580 
	C41.270317,174.002548 41.180500,171.877792 41.227974,169.315536 
z"/>
<path fill="#B9B4B4" opacity="1.000000" stroke="none" 
	d="
M172.259857,181.201843 
	C173.841583,182.292801 175.483749,183.705383 177.114319,185.464233 
	C175.508575,184.381485 173.914429,182.952469 172.259857,181.201843 
z"/>
<path fill="#B9B4B4" opacity="1.000000" stroke="none" 
	d="
M41.233627,253.246613 
	C41.940948,254.623886 42.509800,256.372284 43.071404,258.503906 
	C42.407822,257.130707 41.751488,255.374222 41.233627,253.246613 
z"/>
<path fill="#B9B4B4" opacity="1.000000" stroke="none" 
	d="
M139.002762,147.351089 
	C140.266205,148.207291 141.549667,149.398758 142.758484,150.932892 
	C141.463486,150.079163 140.243134,148.882751 139.002762,147.351089 
z"/>
<path fill="#B9B4B4" opacity="1.000000" stroke="none" 
	d="
M124.215744,340.230133 
	C125.285255,340.296417 126.407166,340.678986 127.888931,341.012909 
	C128.264343,341.529083 128.279892,342.093872 128.295456,342.658691 
	C126.953026,341.954590 125.610588,341.250519 124.215744,340.230133 
z"/>
<path fill="#C5BEBE" opacity="1.000000" stroke="none" 
	d="
M361.400208,122.043961 
	C361.840240,121.075035 362.599701,120.053482 363.702301,119.033592 
	C363.270172,120.020615 362.494873,121.005966 361.400208,122.043961 
z"/>
<path fill="#C5BEBE" opacity="1.000000" stroke="none" 
	d="
M340.293335,142.895065 
	C340.759674,141.983688 341.543671,141.009567 342.661713,140.016113 
	C342.200867,140.941956 341.405914,141.887131 340.293335,142.895065 
z"/>
<path fill="#B9B4B4" opacity="1.000000" stroke="none" 
	d="
M29.037729,28.331850 
	C29.974831,28.781139 30.973209,29.547977 31.990877,30.649334 
	C31.039780,30.205700 30.069393,29.427551 29.037729,28.331850 
z"/>
<path fill="#B9B4B4" opacity="1.000000" stroke="none" 
	d="
M187.241516,196.210648 
	C188.172287,196.640869 189.165939,197.376938 190.137299,198.451996 
	C189.178131,198.032806 188.241257,197.274643 187.241516,196.210648 
z"/>
<path fill="#B9B4B4" opacity="1.000000" stroke="none" 
	d="
M156.270264,165.188141 
	C157.199234,165.634201 158.161377,166.391769 159.108521,167.489166 
	C158.163483,167.052536 157.233459,166.276093 156.270264,165.188141 
z"/>
<path fill="#B9B4B4" opacity="1.000000" stroke="none" 
	d="
M204.300781,213.177277 
	C205.179565,213.358444 206.074280,213.855713 206.983017,214.679962 
	C206.103592,214.502411 205.210159,213.997910 204.300781,213.177277 
z"/>
<path fill="#C7C3C4" opacity="1.000000" stroke="none" 
	d="
M389.195435,94.759369 
	C389.496582,93.944954 390.095001,93.106293 391.026123,92.364731 
	C390.736786,93.219589 390.114746,93.977348 389.195435,94.759369 
z"/>
<path fill="#C5BEBE" opacity="1.000000" stroke="none" 
	d="
M299.466370,183.114807 
	C299.773224,182.399033 300.369415,181.616974 301.298889,180.856689 
	C301.006714,181.601807 300.381226,182.325165 299.466370,183.114807 
z"/>
<path fill="#B9B4B4" opacity="1.000000" stroke="none" 
	d="
M142.785248,151.620682 
	C143.534332,151.912155 144.345459,152.504990 145.135071,153.444305 
	C144.358124,153.167877 143.602692,152.544968 142.785248,151.620682 
z"/>
<path fill="#B9B4B4" opacity="1.000000" stroke="none" 
	d="
M133.002075,141.342804 
	C133.579086,141.521469 134.213623,142.008072 134.876022,142.820175 
	C134.289124,142.647354 133.674362,142.149048 133.002075,141.342804 
z"/>
<path fill="#B9B4B4" opacity="1.000000" stroke="none" 
	d="
M137.054321,145.307953 
	C137.642242,145.466095 138.300079,145.921646 138.970947,146.697113 
	C138.364059,146.546463 137.744156,146.075897 137.054321,145.307953 
z"/>
<path fill="#C5BEBE" opacity="1.000000" stroke="none" 
	d="
M345.291870,137.908966 
	C345.425323,137.294876 345.884430,136.652863 346.661987,135.998611 
	C346.526184,136.617935 346.071869,137.249496 345.291870,137.908966 
z"/>
<path fill="#C5BEBE" opacity="1.000000" stroke="none" 
	d="
M297.448425,185.165192 
	C297.597595,184.548370 298.052521,183.871826 298.845612,183.184265 
	C298.707214,183.817337 298.230713,184.461411 297.448425,185.165192 
z"/>
<path fill="#C5BEBE" opacity="1.000000" stroke="none" 
	d="
M347.297943,135.947083 
	C347.443604,135.329376 347.900177,134.677811 348.674591,134.035309 
	C348.531219,134.667313 348.070038,135.290268 347.297943,135.947083 
z"/>
<path fill="#C5BEBE" opacity="1.000000" stroke="none" 
	d="
M364.347229,119.009491 
	C364.503113,118.390945 364.971619,117.736420 365.770386,117.070007 
	C365.620422,117.696594 365.140137,118.335052 364.347229,119.009491 
z"/>
<path fill="#B9B4B4" opacity="1.000000" stroke="none" 
	d="
M41.205666,194.252350 
	C41.502602,194.611359 41.667355,195.334167 41.585125,196.087433 
	C41.249924,195.617310 41.161705,195.116745 41.205666,194.252350 
z"/>
<path fill="#B9B4B4" opacity="1.000000" stroke="none" 
	d="
M119.184418,335.220703 
	C119.783058,335.365936 120.416046,335.812286 121.056900,336.570923 
	C120.449432,336.429413 119.834099,335.975616 119.184418,335.220703 
z"/>
<path fill="#B9B4B4" opacity="1.000000" stroke="none" 
	d="
M128.572678,327.659668 
	C128.258179,326.845123 128.116730,325.643433 128.182480,324.204010 
	C128.508362,325.068359 128.627045,326.170471 128.572678,327.659668 
z"/>
<path fill="#B9B4B4" opacity="1.000000" stroke="none" 
	d="
M178.227615,187.159729 
	C178.521805,187.030441 178.812393,187.155914 179.096420,187.538025 
	C178.801239,187.667953 178.512634,187.541214 178.227615,187.159729 
z"/>
<path fill="#B9B4B4" opacity="1.000000" stroke="none" 
	d="
M170.225128,179.160706 
	C170.522888,179.031631 170.811035,179.161652 171.097473,179.547943 
	C170.802353,179.676086 170.508942,179.547943 170.225128,179.160706 
z"/>
<path fill="#C5BEBE" opacity="1.000000" stroke="none" 
	d="
M245.191071,179.833008 
	C245.069580,179.572586 245.200531,179.280930 245.584137,178.960327 
	C245.705704,179.221512 245.574600,179.511642 245.191071,179.833008 
z"/>
<path fill="#B9B4B4" opacity="1.000000" stroke="none" 
	d="
M171.202850,180.164566 
	C171.489105,180.029251 171.782593,180.154388 172.089142,180.536270 
	C171.804825,180.670349 171.507431,180.547684 171.202850,180.164566 
z"/>
<path fill="#B9B4B4" opacity="1.000000" stroke="none" 
	d="
M128.534424,315.773407 
	C128.229675,315.863617 128.043839,315.688721 127.928543,315.475677 
	C127.881081,315.387970 127.985306,315.218170 128.209778,315.005768 
	C128.493286,315.114868 128.587524,315.303894 128.534424,315.773407 
z"/>
<path fill="#C5BEBE" opacity="1.000000" stroke="none" 
	d="
M242.195343,182.838562 
	C242.077103,182.566940 242.218384,182.280884 242.610321,181.967072 
	C242.725616,182.234253 242.590240,182.529190 242.195343,182.838562 
z"/>
<path fill="#C5BEBE" opacity="1.000000" stroke="none" 
	d="
M239.224457,185.892212 
	C239.111710,185.618881 239.267853,185.333618 239.677002,185.008011 
	C239.784470,185.271881 239.638901,185.576080 239.224457,185.892212 
z"/>
<path fill="#B9B4B4" opacity="1.000000" stroke="none" 
	d="
M147.254913,156.145432 
	C147.546677,156.012589 147.837601,156.131851 148.121277,156.507050 
	C147.827362,156.641159 147.540726,156.519348 147.254913,156.145432 
z"/>
<path fill="#C5BEBE" opacity="1.000000" stroke="none" 
	d="
M236.198502,188.861816 
	C236.081711,188.606293 236.219727,188.311478 236.613113,187.979752 
	C236.730087,188.236053 236.591705,188.529282 236.198502,188.861816 
z"/>
<path fill="#C5BEBE" opacity="1.000000" stroke="none" 
	d="
M235.229431,189.894012 
	C235.107483,189.624329 235.255402,189.335312 235.654175,188.997742 
	C235.769806,189.257675 235.634537,189.566177 235.229431,189.894012 
z"/>
<path fill="#C5BEBE" opacity="1.000000" stroke="none" 
	d="
M213.204834,211.853363 
	C212.895645,211.496536 213.033585,211.211670 213.603546,210.977417 
	C213.722137,211.237305 213.594269,211.536392 213.204834,211.853363 
z"/>
<path fill="#C5BEBE" opacity="1.000000" stroke="none" 
	d="
M293.096832,189.393311 
	C292.817047,189.121140 292.860474,188.967194 293.211182,188.895813 
	C293.344452,188.929611 293.479187,189.230164 293.479187,189.230164 
	C293.479187,189.230164 293.246063,189.462784 293.096832,189.393311 
z"/>
<path fill="#B9B4B4" opacity="1.000000" stroke="none" 
	d="
M199.200790,208.173492 
	C199.476044,208.033676 199.770065,208.147247 200.079559,208.513336 
	C199.803192,208.652847 199.511383,208.539871 199.200790,208.173492 
z"/>
<path fill="#C5BEBE" opacity="1.000000" stroke="none" 
	d="
M222.210999,202.866028 
	C222.096909,202.606720 222.241943,202.316071 222.640533,201.985489 
	C222.752777,202.241928 222.611450,202.538300 222.210999,202.866028 
z"/>
<path fill="#B9B4B4" opacity="1.000000" stroke="none" 
	d="
M193.218384,202.162262 
	C193.511139,202.025360 193.801056,202.146301 194.093735,202.521561 
	C193.802841,202.657303 193.509216,202.538712 193.218384,202.162262 
z"/>
<path fill="#C5BEBE" opacity="1.000000" stroke="none" 
	d="
M223.203491,201.866745 
	C223.090759,201.606430 223.237427,201.317413 223.636627,200.989655 
	C223.747055,201.246628 223.604980,201.542343 223.203491,201.866745 
z"/>
<path fill="#C5BEBE" opacity="1.000000" stroke="none" 
	d="
M230.230438,194.901672 
	C230.113113,194.623978 230.268158,194.337967 230.676041,194.009674 
	C230.786865,194.276047 230.644836,194.584702 230.230438,194.901672 
z"/>
<path fill="#C5BEBE" opacity="1.000000" stroke="none" 
	d="
M232.203247,192.852005 
	C232.081726,192.592819 232.216431,192.303314 232.600525,191.975830 
	C232.719757,192.232468 232.589600,192.527084 232.203247,192.852005 
z"/>
<path fill="#C5BEBE" opacity="1.000000" stroke="none" 
	d="
M248.217377,176.877533 
	C248.105835,176.606598 248.260483,176.319794 248.668396,175.995209 
	C248.775635,176.258850 248.629593,176.560272 248.217377,176.877533 
z"/>
<path fill="#C5BEBE" opacity="1.000000" stroke="none" 
	d="
M271.238983,153.924362 
	C271.121765,153.650894 271.277740,153.358765 271.689270,153.020660 
	C271.800629,153.285034 271.656372,153.595367 271.238983,153.924362 
z"/>
<path fill="#C5BEBE" opacity="1.000000" stroke="none" 
	d="
M329.252136,153.936066 
	C329.137329,153.669022 329.292206,153.372116 329.706390,153.029236 
	C329.817749,153.290909 329.669800,153.598572 329.252136,153.936066 
z"/>
<path fill="#C5BEBE" opacity="1.000000" stroke="none" 
	d="
M270.212891,154.871155 
	C270.109741,154.608658 270.265411,154.316055 270.680054,153.993591 
	C270.783234,154.256165 270.627472,154.548615 270.212891,154.871155 
z"/>
<path fill="#C5BEBE" opacity="1.000000" stroke="none" 
	d="
M326.237396,156.911407 
	C326.120972,156.657761 326.261963,156.353745 326.665100,156.008011 
	C326.783142,156.264542 326.638977,156.562790 326.237396,156.911407 
z"/>
<path fill="#B9B4B4" opacity="1.000000" stroke="none" 
	d="
M148.223480,157.150604 
	C148.520920,157.012436 148.812256,157.133286 149.102112,157.510040 
	C148.806213,157.647186 148.511810,157.528412 148.223480,157.150604 
z"/>
<path fill="#C5BEBE" opacity="1.000000" stroke="none" 
	d="
M322.110291,160.548370 
	C321.759857,160.254608 321.826935,160.018387 322.322327,159.860657 
	C322.649963,160.163910 322.575684,160.386169 322.110291,160.548370 
z"/>
<path fill="#C5BEBE" opacity="1.000000" stroke="none" 
	d="
M320.122253,162.592987 
	C319.809448,162.277359 319.906433,162.040802 320.426086,161.905548 
	C320.698029,162.221283 320.592438,162.443008 320.122253,162.592987 
z"/>
<path fill="#B9B4B4" opacity="1.000000" stroke="none" 
	d="
M128.568222,169.775299 
	C128.298050,169.738556 128.169205,169.417191 128.228516,169.011261 
	C128.514297,169.114716 128.611923,169.302719 128.568222,169.775299 
z"/>
<path fill="#B9B4B4" opacity="1.000000" stroke="none" 
	d="
M160.220551,169.163605 
	C160.504959,169.024094 160.795807,169.138779 161.093277,169.505295 
	C160.808945,169.644012 160.517960,169.530899 160.220551,169.163605 
z"/>
<path fill="#C5BEBE" opacity="1.000000" stroke="none" 
	d="
M255.200256,169.850067 
	C255.086731,169.591599 255.228256,169.302612 255.622253,168.979553 
	C255.734909,169.236816 255.595108,169.528183 255.200256,169.850067 
z"/>
<path fill="#C5BEBE" opacity="1.000000" stroke="none" 
	d="
M249.221191,175.893341 
	C249.100525,175.630951 249.244705,175.339203 249.640564,175.000397 
	C249.756851,175.256882 249.621445,175.560440 249.221191,175.893341 
z"/>
<path fill="#010101" opacity="1.000000" stroke="none" 
	d="
M391.011780,180.877258 
	C401.544434,181.425079 411.717346,181.107544 421.582977,182.697083 
	C443.045502,186.155121 460.943909,207.615463 462.152161,229.376923 
	C463.041504,245.395538 458.929535,259.609467 447.922760,271.322601 
	C438.468658,281.383423 426.813049,287.644104 412.720398,288.127167 
	C403.076233,288.457794 393.407135,288.047455 383.761261,288.351074 
	C379.802460,288.475647 378.997253,286.913269 379.073212,283.408905 
	C379.426086,267.128296 379.690063,250.844528 379.814117,234.560562 
	C379.938080,218.292786 379.858154,202.023453 379.867432,185.754791 
	C379.868256,184.292313 379.867523,182.829834 379.867523,180.876678 
	C383.625336,180.876678 387.069031,180.876678 391.011780,180.877258 
z"/>
<path fill="#C7C3C4" opacity="1.000000" stroke="none" 
	d="
M229.731476,65.159973 
	C228.614502,66.781631 227.164398,68.426552 225.370697,70.045311 
	C226.484192,68.407181 227.941269,66.795212 229.731476,65.159973 
z"/>
<path fill="#C7C3C4" opacity="1.000000" stroke="none" 
	d="
M289.668823,5.059605 
	C288.907837,6.320849 287.825500,7.659848 286.405701,9.007494 
	C287.161346,7.723214 288.254395,6.430286 289.668823,5.059605 
z"/>
<path fill="#C7C3C4" opacity="1.000000" stroke="none" 
	d="
M257.746399,37.193577 
	C256.983307,38.451202 255.894241,39.747593 254.472717,41.056129 
	C255.233673,39.789631 256.327057,38.510986 257.746399,37.193577 
z"/>
<path fill="#C7C3C4" opacity="1.000000" stroke="none" 
	d="
M234.754364,60.192627 
	C234.316284,61.131844 233.558167,62.105019 232.453674,63.065552 
	C232.882965,62.110802 233.658630,61.168697 234.754364,60.192627 
z"/>
<path fill="#C7C3C4" opacity="1.000000" stroke="none" 
	d="
M208.722595,86.089684 
	C208.029404,88.916710 206.958450,88.228226 205.863373,85.807037 
	C206.703735,85.687630 207.548691,85.890770 208.722595,86.089684 
z"/>
<path fill="#C7C3C4" opacity="1.000000" stroke="none" 
	d="
M211.754608,83.200027 
	C211.295319,84.110626 210.523071,85.079712 209.419083,86.051773 
	C209.872116,85.122673 210.656891,84.190598 211.754608,83.200027 
z"/>
<path fill="#C7C3C4" opacity="1.000000" stroke="none" 
	d="
M216.775635,78.242912 
	C216.329865,79.151077 215.573044,80.111694 214.491364,81.076378 
	C214.932526,80.152084 215.698578,79.223717 216.775635,78.242912 
z"/>
<path fill="#C7C3C4" opacity="1.000000" stroke="none" 
	d="
M220.766510,74.217789 
	C220.335098,75.144135 219.591431,76.118156 218.520889,77.091614 
	C218.947433,76.149178 219.700836,75.207329 220.766510,74.217789 
z"/>
<path fill="#C7C3C4" opacity="1.000000" stroke="none" 
	d="
M224.688354,70.024139 
	C224.278046,71.030678 223.538773,72.035500 222.465973,73.052460 
	C222.874786,72.050545 223.617096,71.036484 224.688354,70.024139 
z"/>
<path fill="#C7C3C4" opacity="1.000000" stroke="none" 
	d="
M243.757431,51.203636 
	C243.313492,52.118031 242.557037,53.087929 241.472473,54.063732 
	C241.911209,53.132805 242.678055,52.195972 243.757431,51.203636 
z"/>
<path fill="#C7C3C4" opacity="1.000000" stroke="none" 
	d="
M138.887115,17.730066 
	C138.282394,17.583328 137.641876,17.128288 136.990601,16.353222 
	C137.603653,16.496050 138.227493,16.958908 138.887115,17.730066 
z"/>
<path fill="#C7C3C4" opacity="1.000000" stroke="none" 
	d="
M279.704712,15.071802 
	C279.565704,15.697644 279.102753,16.338245 278.319946,16.989504 
	C278.460297,16.362293 278.920563,15.724427 279.704712,15.071802 
z"/>
<path fill="#C7C3C4" opacity="1.000000" stroke="none" 
	d="
M274.751740,20.156479 
	C274.625946,20.760208 274.204498,21.410126 273.468292,22.066990 
	C273.587708,21.450180 274.021912,20.826426 274.751740,20.156479 
z"/>
<path fill="#C7C3C4" opacity="1.000000" stroke="none" 
	d="
M270.776398,24.213772 
	C270.649323,24.806217 270.219879,25.441914 269.478943,26.078846 
	C269.602966,25.472393 270.038483,24.864708 270.776398,24.213772 
z"/>
<path fill="#C7C3C4" opacity="1.000000" stroke="none" 
	d="
M265.770935,29.184860 
	C265.630737,29.780796 265.191956,30.414013 264.441376,31.055317 
	C264.577148,30.449648 265.024780,29.835894 265.770935,29.184860 
z"/>
<path fill="#C7C3C4" opacity="1.000000" stroke="none" 
	d="
M261.764648,33.170937 
	C261.624878,33.769131 261.189606,34.412750 260.440125,35.053825 
	C260.573669,34.439640 261.021454,33.827999 261.764648,33.170937 
z"/>
<path fill="#C7C3C4" opacity="1.000000" stroke="none" 
	d="
M252.773895,42.191101 
	C252.625015,42.782265 252.180161,43.416519 251.422775,44.045471 
	C251.566147,43.438175 252.022018,42.836178 252.773895,42.191101 
z"/>
<path fill="#C7C3C4" opacity="1.000000" stroke="none" 
	d="
M284.744293,10.147278 
	C284.593323,10.728824 284.151123,11.386364 283.389191,12.044582 
	C283.530640,11.437931 283.991852,10.830602 284.744293,10.147278 
z"/>
<path fill="#C7C3C4" opacity="1.000000" stroke="none" 
	d="
M282.745056,12.109852 
	C282.613464,12.722723 282.182068,13.375471 281.432495,14.042377 
	C281.557983,13.420933 282.001617,12.785331 282.745056,12.109852 
z"/>
<path fill="#C7C3C4" opacity="1.000000" stroke="none" 
	d="
M238.772217,56.208260 
	C238.640686,56.792126 238.209259,57.431293 237.465988,58.072609 
	C237.593536,57.471024 238.032928,56.867290 238.772217,56.208260 
z"/>
<path fill="#C7C3C4" opacity="1.000000" stroke="none" 
	d="
M136.931366,15.754396 
	C136.675888,15.851974 136.384491,15.685190 136.046326,15.260008 
	C136.298172,15.164417 136.596802,15.327227 136.931366,15.754396 
z"/>
<path fill="#C7C3C4" opacity="1.000000" stroke="none" 
	d="
M152.900085,31.767010 
	C152.646164,31.878159 152.350174,31.729912 152.008911,31.324772 
	C152.261765,31.214457 152.559906,31.361036 152.900085,31.767010 
z"/>
<path fill="#C7C3C4" opacity="1.000000" stroke="none" 
	d="
M159.865753,38.791496 
	C159.585144,38.879536 159.312164,38.701385 159.016647,38.267776 
	C159.287216,38.183311 159.580292,38.354309 159.865753,38.791496 
z"/>
<path fill="#C7C3C4" opacity="1.000000" stroke="none" 
	d="
M157.930267,36.748173 
	C157.682877,36.863884 157.376724,36.722263 157.019684,36.319511 
	C157.269699,36.202530 157.570602,36.346684 157.930267,36.748173 
z"/>
<path fill="#C7C3C4" opacity="1.000000" stroke="none" 
	d="
M161.851135,40.796799 
	C161.553207,41.122982 161.256790,41.021805 160.967834,40.496841 
	C161.204941,40.355934 161.497406,40.454731 161.851135,40.796799 
z"/>
<path fill="#C7C3C4" opacity="1.000000" stroke="none" 
	d="
M164.873230,43.785366 
	C164.614960,43.887569 164.327881,43.731876 164.005432,43.321781 
	C164.261520,43.220741 164.552979,43.374107 164.873230,43.785366 
z"/>
<path fill="#C7C3C4" opacity="1.000000" stroke="none" 
	d="
M168.902954,47.775497 
	C168.635574,47.873974 168.341949,47.708893 168.020355,47.280029 
	C168.287140,47.181477 168.581924,47.346710 168.902954,47.775497 
z"/>
<path fill="#C7C3C4" opacity="1.000000" stroke="none" 
	d="
M169.880341,48.779541 
	C169.623535,48.886669 169.332443,48.734909 169.001007,48.328423 
	C169.255798,48.222679 169.550903,48.371666 169.880341,48.779541 
z"/>
<path fill="#C7C3C4" opacity="1.000000" stroke="none" 
	d="
M180.698364,59.922905 
	C180.766113,60.104546 180.330307,60.171768 180.330307,60.171768 
	C180.330307,60.171768 179.977142,59.907581 179.955811,59.688133 
	C180.216553,59.431770 180.448593,59.522633 180.698364,59.922905 
z"/>
<path fill="#C7C3C4" opacity="1.000000" stroke="none" 
	d="
M181.905716,60.757816 
	C181.574890,61.063049 181.290146,60.931110 181.006348,60.400444 
	C181.245300,60.273804 181.560150,60.380116 181.905716,60.757816 
z"/>
<path fill="#C7C3C4" opacity="1.000000" stroke="none" 
	d="
M183.888336,62.775093 
	C183.629044,62.891140 183.338989,62.745525 183.003754,62.348969 
	C183.258224,62.236492 183.557892,62.374962 183.888336,62.775093 
z"/>
<path fill="#C7C3C4" opacity="1.000000" stroke="none" 
	d="
M156.902664,35.772373 
	C156.648148,35.885040 156.354065,35.737110 156.012939,35.334579 
	C156.264969,35.223911 156.564026,35.367840 156.902664,35.772373 
z"/>
<path fill="#C7C3C4" opacity="1.000000" stroke="none" 
	d="
M188.884583,67.778427 
	C188.639359,67.888878 188.345367,67.746590 188.005081,67.351013 
	C188.251129,67.240387 188.543472,67.383041 188.884583,67.778427 
z"/>
<path fill="#C7C3C4" opacity="1.000000" stroke="none" 
	d="
M197.891479,76.773712 
	C197.636948,76.886383 197.343521,76.740761 197.006622,76.340698 
	C197.259644,76.229309 197.556122,76.372360 197.891479,76.773712 
z"/>
<path fill="#C7C3C4" opacity="1.000000" stroke="none" 
	d="
M199.876663,78.783905 
	C199.600327,78.886765 199.321701,78.722260 199.009216,78.306213 
	C199.275040,78.208618 199.574707,78.362579 199.876663,78.783905 
z"/>
<path fill="#C7C3C4" opacity="1.000000" stroke="none" 
	d="
M201.455414,80.883759 
	C201.454193,81.059143 201.069290,81.093353 201.069290,81.093353 
	C201.069290,81.093353 200.807693,80.808830 200.839691,80.618408 
	C201.143646,80.360924 201.338623,80.454384 201.455414,80.883759 
z"/>
<path fill="#C7C3C4" opacity="1.000000" stroke="none" 
	d="
M204.490845,83.880821 
	C204.467102,84.060493 204.084015,84.062889 204.084015,84.062889 
	C204.084015,84.062889 203.853104,83.757111 203.890320,83.569412 
	C204.213028,83.323212 204.408707,83.429688 204.490845,83.880821 
z"/>
<path fill="#C7C3C4" opacity="1.000000" stroke="none" 
	d="
M151.898514,30.775848 
	C151.639923,30.880365 151.346420,30.723276 151.012970,30.307266 
	C151.269882,30.203644 151.566742,30.358942 151.898514,30.775848 
z"/>
<path fill="#C7C3C4" opacity="1.000000" stroke="none" 
	d="
M150.919327,29.763493 
	C150.657516,29.863131 150.361786,29.699345 150.030762,29.272026 
	C150.292114,29.172350 150.588760,29.336208 150.919327,29.763493 
z"/>
<path fill="#C7C3C4" opacity="1.000000" stroke="none" 
	d="
M149.954956,28.734646 
	C149.701462,28.840128 149.411377,28.676350 149.058029,28.261990 
	C149.302628,28.162735 149.610489,28.314060 149.954956,28.734646 
z"/>
</svg>